<svg width="430" height="394" viewBox="0 0 430 394" fill="none" xmlns="http://www.w3.org/2000/svg">
<path d="M217.15 333.88L215 336.027L212.635 333.88C110.51 241.338 43 180.145 43 118.093C43 75.1499 75.25 42.9428 118.25 42.9428C151.36 42.9428 183.61 64.4142 195.005 93.6153H234.995C246.39 64.4142 278.64 42.9428 311.75 42.9428C354.75 42.9428 387 75.1499 387 118.093C387 180.145 319.49 241.338 217.15 333.88ZM311.75 0C274.34 0 238.435 17.3918 215 44.6605C191.565 17.3918 155.66 0 118.25 0C52.03 0 0 51.7461 0 118.093C0 199.04 73.1 265.386 183.825 365.658L215 394L246.175 365.658C356.9 265.386 430 199.04 430 118.093C430 51.7461 377.97 0 311.75 0Z" fill="#464E2E"/>
</svg>
