<svg width="22" height="22" fill="none" xmlns="http://www.w3.org/2000/svg"><path d="m20.289 22-7.7-7.7a7.45 7.45 0 0 1-4.644 1.589c-2.22 0-4.1-.77-5.637-2.308C.77 12.043 0 10.164 0 7.944c0-2.22.77-4.099 2.308-5.636C3.846.77 5.725 0 7.944 0c2.22 0 4.1.77 5.639 2.308 1.538 1.538 2.307 3.417 2.306 5.636A7.45 7.45 0 0 1 14.3 12.59l7.7 7.7L20.289 22zM7.944 13.444c1.528 0 2.827-.534 3.897-1.603 1.07-1.07 1.604-2.368 1.603-3.897 0-1.527-.534-2.826-1.603-3.895-1.07-1.069-2.368-1.604-3.897-1.605-1.527 0-2.826.535-3.895 1.605C2.98 5.12 2.445 6.417 2.444 7.944c0 1.528.535 2.827 1.605 3.897 1.07 1.07 2.368 1.604 3.895 1.603z" fill="#fff"/></svg>