<svg width="24" height="24" viewBox="0 0 24 24" fill="none" xmlns="http://www.w3.org/2000/svg">
<path d="M10.8 18H13.2V10.8H10.8V18ZM12 8.4C12.34 8.4 12.6252 8.2848 12.8556 8.0544C13.086 7.824 13.2008 7.5392 13.2 7.2C13.2 6.86 13.0848 6.5752 12.8544 6.3456C12.624 6.116 12.3392 6.0008 12 6C11.66 6 11.3752 6.1152 11.1456 6.3456C10.916 6.576 10.8008 6.8608 10.8 7.2C10.8 7.54 10.9152 7.8252 11.1456 8.0556C11.376 8.286 11.6608 8.4008 12 8.4ZM12 24C10.34 24 8.78 23.6848 7.32 23.0544C5.86 22.424 4.59 21.5692 3.51 20.49C2.43 19.41 1.5752 18.14 0.9456 16.68C0.316 15.22 0.0008 13.66 0 12C0 10.34 0.3152 8.78 0.9456 7.32C1.576 5.86 2.4308 4.59 3.51 3.51C4.59 2.43 5.86 1.5752 7.32 0.9456C8.78 0.316 10.34 0.0008 12 0C13.66 0 15.22 0.3152 16.68 0.9456C18.14 1.576 19.41 2.4308 20.49 3.51C21.57 4.59 22.4252 5.86 23.0556 7.32C23.686 8.78 24.0008 10.34 24 12C24 13.66 23.6848 15.22 23.0544 16.68C22.424 18.14 21.5692 19.41 20.49 20.49C19.41 21.57 18.14 22.4252 16.68 23.0556C15.22 23.686 13.66 24.0008 12 24ZM12 21.6C14.68 21.6 16.95 20.67 18.81 18.81C20.67 16.95 21.6 14.68 21.6 12C21.6 9.32 20.67 7.05 18.81 5.19C16.95 3.33 14.68 2.4 12 2.4C9.32 2.4 7.05 3.33 5.19 5.19C3.33 7.05 2.4 9.32 2.4 12C2.4 14.68 3.33 16.95 5.19 18.81C7.05 20.67 9.32 21.6 12 21.6Z" fill="#464E2E"/>
</svg>
