<svg width="138" height="20" viewBox="0 0 138 20" fill="none" xmlns="http://www.w3.org/2000/svg">
<path d="M14.552 2.248V19H11.192V11.872H4.016V19H0.656V2.248H4.016V9.136H11.192V2.248H14.552ZM30.4111 5.704V19H27.0271V17.32C26.5951 17.896 26.0271 18.352 25.3231 18.688C24.6351 19.008 23.8831 19.168 23.0671 19.168C22.0271 19.168 21.1071 18.952 20.3071 18.52C19.5071 18.072 18.8751 17.424 18.4111 16.576C17.9631 15.712 17.7391 14.688 17.7391 13.504V5.704H21.0991V13.024C21.0991 14.08 21.3631 14.896 21.8911 15.472C22.4191 16.032 23.1391 16.312 24.0511 16.312C24.9791 16.312 25.7071 16.032 26.2351 15.472C26.7631 14.896 27.0271 14.08 27.0271 13.024V5.704H30.4111ZM46.0863 12.064C46.0863 12.544 46.0543 12.976 45.9903 13.36H36.2703C36.3503 14.32 36.6863 15.072 37.2783 15.616C37.8703 16.16 38.5983 16.432 39.4623 16.432C40.7103 16.432 41.5983 15.896 42.1263 14.824H45.7503C45.3663 16.104 44.6303 17.16 43.5423 17.992C42.4543 18.808 41.1183 19.216 39.5343 19.216C38.2543 19.216 37.1023 18.936 36.0783 18.376C35.0703 17.8 34.2783 16.992 33.7023 15.952C33.1423 14.912 32.8623 13.712 32.8623 12.352C32.8623 10.976 33.1423 9.768 33.7023 8.728C34.2623 7.688 35.0463 6.888 36.0543 6.328C37.0623 5.768 38.2223 5.488 39.5343 5.488C40.7983 5.488 41.9263 5.76 42.9183 6.304C43.9263 6.848 44.7023 7.624 45.2463 8.632C45.8063 9.624 46.0863 10.768 46.0863 12.064ZM42.6063 11.104C42.5903 10.24 42.2783 9.552 41.6703 9.04C41.0623 8.512 40.3183 8.248 39.4383 8.248C38.6063 8.248 37.9023 8.504 37.3263 9.016C36.7663 9.512 36.4223 10.208 36.2943 11.104H42.6063ZM51.8988 7.768C52.3308 7.064 52.8908 6.512 53.5788 6.112C54.2828 5.712 55.0828 5.512 55.9788 5.512V9.04H55.0908C54.0348 9.04 53.2348 9.288 52.6908 9.784C52.1628 10.28 51.8988 11.144 51.8988 12.376V19H48.5388V5.704H51.8988V7.768ZM62.1539 8.464V14.896C62.1539 15.344 62.2579 15.672 62.4659 15.88C62.6899 16.072 63.0579 16.168 63.5699 16.168H65.1299V19H63.0179C60.1859 19 58.7699 17.624 58.7699 14.872V8.464H57.1859V5.704H58.7699V2.416H62.1539V5.704H65.1299V8.464H62.1539ZM66.6826 12.304C66.6826 10.96 66.9466 9.768 67.4746 8.728C68.0186 7.688 68.7466 6.888 69.6586 6.328C70.5866 5.768 71.6186 5.488 72.7546 5.488C73.7466 5.488 74.6106 5.688 75.3466 6.088C76.0986 6.488 76.6986 6.992 77.1466 7.6V5.704H80.5306V19H77.1466V17.056C76.7146 17.68 76.1146 18.2 75.3466 18.616C74.5946 19.016 73.7226 19.216 72.7306 19.216C71.6106 19.216 70.5866 18.928 69.6586 18.352C68.7466 17.776 68.0186 16.968 67.4746 15.928C66.9466 14.872 66.6826 13.664 66.6826 12.304ZM77.1466 12.352C77.1466 11.536 76.9866 10.84 76.6666 10.264C76.3466 9.672 75.9146 9.224 75.3706 8.92C74.8266 8.6 74.2426 8.44 73.6186 8.44C72.9946 8.44 72.4186 8.592 71.8906 8.896C71.3626 9.2 70.9306 9.648 70.5946 10.24C70.2746 10.816 70.1146 11.504 70.1146 12.304C70.1146 13.104 70.2746 13.808 70.5946 14.416C70.9306 15.008 71.3626 15.464 71.8906 15.784C72.4346 16.104 73.0106 16.264 73.6186 16.264C74.2426 16.264 74.8266 16.112 75.3706 15.808C75.9146 15.488 76.3466 15.04 76.6666 14.464C76.9866 13.872 77.1466 13.168 77.1466 12.352Z" fill="#464E2E"/>
<path d="M94.1562 2.248V4.96H87.1723V9.256H92.5243V11.92H87.1723V19H83.8123V2.248H94.1562ZM95.6748 12.304C95.6748 10.96 95.9388 9.768 96.4668 8.728C97.0108 7.688 97.7388 6.888 98.6508 6.328C99.5788 5.768 100.611 5.488 101.747 5.488C102.739 5.488 103.603 5.688 104.339 6.088C105.091 6.488 105.691 6.992 106.139 7.6V5.704H109.523V19H106.139V17.056C105.707 17.68 105.107 18.2 104.339 18.616C103.587 19.016 102.715 19.216 101.723 19.216C100.603 19.216 99.5788 18.928 98.6508 18.352C97.7388 17.776 97.0108 16.968 96.4668 15.928C95.9388 14.872 95.6748 13.664 95.6748 12.304ZM106.139 12.352C106.139 11.536 105.979 10.84 105.659 10.264C105.339 9.672 104.907 9.224 104.363 8.92C103.819 8.6 103.235 8.44 102.611 8.44C101.987 8.44 101.411 8.592 100.883 8.896C100.355 9.2 99.9228 9.648 99.5868 10.24C99.2668 10.816 99.1068 11.504 99.1068 12.304C99.1068 13.104 99.2668 13.808 99.5868 14.416C99.9228 15.008 100.355 15.464 100.883 15.784C101.427 16.104 102.003 16.264 102.611 16.264C103.235 16.264 103.819 16.112 104.363 15.808C104.907 15.488 105.339 15.04 105.659 14.464C105.979 13.872 106.139 13.168 106.139 12.352ZM111.94 12.352C111.94 10.976 112.22 9.776 112.78 8.752C113.34 7.712 114.116 6.912 115.108 6.352C116.1 5.776 117.236 5.488 118.516 5.488C120.164 5.488 121.524 5.904 122.596 6.736C123.684 7.552 124.412 8.704 124.78 10.192H121.156C120.964 9.616 120.636 9.168 120.172 8.848C119.724 8.512 119.164 8.344 118.492 8.344C117.532 8.344 116.772 8.696 116.212 9.4C115.652 10.088 115.372 11.072 115.372 12.352C115.372 13.616 115.652 14.6 116.212 15.304C116.772 15.992 117.532 16.336 118.492 16.336C119.852 16.336 120.74 15.728 121.156 14.512H124.78C124.412 15.952 123.684 17.096 122.596 17.944C121.508 18.792 120.148 19.216 118.516 19.216C117.236 19.216 116.1 18.936 115.108 18.376C114.116 17.8 113.34 17 112.78 15.976C112.22 14.936 111.94 13.728 111.94 12.352ZM128.946 4.12C128.354 4.12 127.858 3.936 127.458 3.568C127.074 3.184 126.882 2.712 126.882 2.152C126.882 1.592 127.074 1.128 127.458 0.759999C127.858 0.375999 128.354 0.183999 128.946 0.183999C129.538 0.183999 130.026 0.375999 130.41 0.759999C130.81 1.128 131.01 1.592 131.01 2.152C131.01 2.712 130.81 3.184 130.41 3.568C130.026 3.936 129.538 4.12 128.946 4.12ZM130.602 5.704V19H127.242V5.704H130.602ZM137.282 1.24V19H133.922V1.24H137.282Z" fill="#433821"/>
</svg>
