<svg width="26" height="24" viewBox="0 0 26 24" fill="none" xmlns="http://www.w3.org/2000/svg">
<path d="M14.6664 0.962111L25.7422 20.1453C25.9111 20.4378 26 20.7697 26 21.1074C26 21.4452 25.9111 21.777 25.7422 22.0695C25.5733 22.362 25.3304 22.605 25.0379 22.7738C24.7454 22.9427 24.4136 23.0317 24.0758 23.0317H1.92417C1.58641 23.0317 1.25459 22.9427 0.96208 22.7738C0.669568 22.605 0.426665 22.362 0.257785 22.0695C0.0889046 21.777 -2.14518e-06 21.4452 0 21.1074C2.14526e-06 20.7697 0.0889131 20.4378 0.257797 20.1453L11.3336 0.962111C12.0738 -0.320704 13.9249 -0.320704 14.6664 0.962111ZM13 16.166C12.6598 16.166 12.3335 16.3012 12.0929 16.5418C11.8523 16.7823 11.7172 17.1086 11.7172 17.4489C11.7172 17.7891 11.8523 18.1154 12.0929 18.3559C12.3335 18.5965 12.6598 18.7317 13 18.7317C13.3402 18.7317 13.6665 18.5965 13.9071 18.3559C14.1477 18.1154 14.2828 17.7891 14.2828 17.4489C14.2828 17.1086 14.1477 16.7823 13.9071 16.5418C13.6665 16.3012 13.3402 16.166 13 16.166ZM13 7.18633C12.6858 7.18637 12.3825 7.30173 12.1477 7.51052C11.9129 7.71931 11.7629 8.00701 11.7262 8.31906L11.7172 8.46915V13.6004C11.7175 13.9274 11.8427 14.2419 12.0672 14.4796C12.2917 14.7174 12.5984 14.8604 12.9248 14.8796C13.2512 14.8988 13.5726 14.7926 13.8234 14.5827C14.0741 14.3728 14.2352 14.0752 14.2738 13.7505L14.2828 13.6004V8.46915C14.2828 8.12892 14.1477 7.80263 13.9071 7.56206C13.6665 7.32148 13.3402 7.18633 13 7.18633Z" fill="#464E2E"/>
</svg>
